HIERARCHY
ROOT hip
{
  OFFSET 0.00112043 5.09927 -9.65472
  CHANNELS 6 Xposition Yposition Zposition Zrotation Xrotation Yrotation
  JOINT abdomen
  {
    OFFSET 0 -1.186 -1.5018
    CHANNELS 3 Zrotation Xrotation Yrotation
    JOINT abdomen2
    {
      OFFSET 0 9.964 0.2134
      CHANNELS 3 Zrotation Xrotation Yrotation
      JOINT chest
      {
        OFFSET 0 13.134 -3.2573
        CHANNELS 3 Zrotation Xrotation Yrotation
        JOINT neck
        {
          OFFSET 0 20.686 -1.6905
          CHANNELS 3 Zrotation Xrotation Yrotation
          JOINT head
          {
            OFFSET 0 7.238 -0.1237
            CHANNELS 3 Zrotation Xrotation Yrotation
            End Site
            {
              OFFSET 0 0 0
            }
          }
        }
        JOINT lCollar
        {
          OFFSET 1.7069 20.075 5.0056
          CHANNELS 3 Zrotation Xrotation Yrotation
          JOINT lShldr
          {
            OFFSET 13.6458 -0.047 -4.849
            CHANNELS 3 Zrotation Xrotation Yrotation
            JOINT lForeArm
            {
              OFFSET 28.3255 -0.9759 2.2888
              CHANNELS 3 Zrotation Xrotation Yrotation
              JOINT lHand
              {
                OFFSET 22.1583 -0.53 10.8316
                CHANNELS 3 Zrotation Xrotation Yrotation
                JOINT lThumb1
                {
                  OFFSET 0.786 0.112 2.5817
                  CHANNELS 3 Zrotation Xrotation Yrotation
                  JOINT lThumb2
                  {
                    OFFSET 0.3601 -0.878 4.2331
                    CHANNELS 3 Zrotation Xrotation Yrotation
                    JOINT lThumb2_End
                    {
                      OFFSET 1.8127 -1.216 2.2227
                      CHANNELS 3 Zrotation Xrotation Yrotation
                      End Site
                      {
                        OFFSET 0.0181 -0.0122 0.0222
                      }
                    }
                  }
                }
                JOINT lCarpal1
                {
                  OFFSET 0.9571 1.114 1.7695
                  CHANNELS 3 Zrotation Xrotation Yrotation
                  JOINT lIndex1
                  {
                    OFFSET 4.1246 0.487 4.1451
                    CHANNELS 3 Zrotation Xrotation Yrotation
                    JOINT lIndex2
                    {
                      OFFSET 3.4052 -1.454 2.7682
                      CHANNELS 3 Zrotation Xrotation Yrotation
                      JOINT lIndex2_End
                      {
                        OFFSET 1.4531 -1.795 1.2713
                        CHANNELS 3 Zrotation Xrotation Yrotation
                        End Site
                        {
                          OFFSET 0.0145 -0.0179 0.0127
                        }
                      }
                    }
                  }
                  JOINT lMid1
                  {
                    OFFSET 5.6954 0.21 2.1184
                    CHANNELS 3 Zrotation Xrotation Yrotation
                    JOINT lMid2
                    {
                      OFFSET 3.9766 -1.54 2.3863
                      CHANNELS 3 Zrotation Xrotation Yrotation
                      JOINT lMid2_End
                      {
                        OFFSET 1.4042 -1.926 1.125
                        CHANNELS 3 Zrotation Xrotation Yrotation
                        End Site
                        {
                          OFFSET 0.014 -0.0193 0.0113
                        }
                      }
                    }
                  }
                }
                JOINT lCarpal2
                {
                  OFFSET 2.0956 0.66 -0.3894
                  CHANNELS 3 Zrotation Xrotation Yrotation
                  JOINT lRing1
                  {
                    OFFSET 5.0395 -0.09 2.4971
                    CHANNELS 3 Zrotation Xrotation Yrotation
                    JOINT lRing2
                    {
                      OFFSET 3.7921 -1.552 1.4806
                      CHANNELS 3 Zrotation Xrotation Yrotation
                      JOINT lRing2_End
                      {
                        OFFSET 1.4655 -1.808 0.9609
                        CHANNELS 3 Zrotation Xrotation Yrotation
                        End Site
                        {
                          OFFSET 0.0147 -0.0181 0.0096
                        }
                      }
                    }
                  }
                  JOINT lPinky1
                  {
                    OFFSET 4.9141 -1.269 0.3591
                    CHANNELS 3 Zrotation Xrotation Yrotation
                    JOINT lPinky2
                    {
                      OFFSET 3.1477 -1.685 0.8462
                      CHANNELS 3 Zrotation Xrotation Yrotation
                      JOINT lPinky2_End
                      {
                        OFFSET 0.8055 -1.585 0.7955
                        CHANNELS 3 Zrotation Xrotation Yrotation
                        End Site
                        {
                          OFFSET 0.0081 -0.0158 0.008
                        }
                      }
                    }
                  }
                }
              }
            }
          }
        }
        JOINT rCollar
        {
          OFFSET -1.7069 20.075 5.0056
          CHANNELS 3 Zrotation Xrotation Yrotation
          JOINT rShldr
          {
            OFFSET -13.6458 -0.047 -4.849
            CHANNELS 3 Zrotation Xrotation Yrotation
            JOINT rForeArm
            {
              OFFSET -28.3255 -0.9759 2.2888
              CHANNELS 3 Zrotation Xrotation Yrotation
              JOINT rHand
              {
                OFFSET -22.1583 -0.53 10.8316
                CHANNELS 3 Zrotation Xrotation Yrotation
                JOINT rThumb1
                {
                  OFFSET -0.786 0.112 2.5817
                  CHANNELS 3 Zrotation Xrotation Yrotation
                  JOINT rThumb2
                  {
                    OFFSET -0.3601 -0.878 4.2331
                    CHANNELS 3 Zrotation Xrotation Yrotation
                    JOINT rThumb2_End
                    {
                      OFFSET -1.8127 -1.216 2.2227
                      CHANNELS 3 Zrotation Xrotation Yrotation
                      End Site
                      {
                        OFFSET -0.0181 -0.0122 0.0222
                      }
                    }
                  }
                }
                JOINT rCarpal1
                {
                  OFFSET -0.9571 1.114 1.7695
                  CHANNELS 3 Zrotation Xrotation Yrotation
                  JOINT rIndex1
                  {
                    OFFSET -4.1246 0.487 4.1451
                    CHANNELS 3 Zrotation Xrotation Yrotation
                    JOINT rIndex2
                    {
                      OFFSET -3.4052 -1.454 2.7682
                      CHANNELS 3 Zrotation Xrotation Yrotation
                      JOINT rIndex2_End
                      {
                        OFFSET -1.4531 -1.795 1.2713
                        CHANNELS 3 Zrotation Xrotation Yrotation
                        End Site
                        {
                          OFFSET -0.0145 -0.018 0.0127
                        }
                      }
                    }
                  }
                  JOINT rMid1
                  {
                    OFFSET -5.6954 0.21 2.1184
                    CHANNELS 3 Zrotation Xrotation Yrotation
                    JOINT rMid2
                    {
                      OFFSET -3.9766 -1.54 2.3863
                      CHANNELS 3 Zrotation Xrotation Yrotation
                      JOINT rMid2_End
                      {
                        OFFSET -1.4042 -1.926 1.125
                        CHANNELS 3 Zrotation Xrotation Yrotation
                        End Site
                        {
                          OFFSET -0.014 -0.0193 0.0113
                        }
                      }
                    }
                  }
                }
                JOINT rCarpal2
                {
                  OFFSET -2.0956 0.66 -0.3894
                  CHANNELS 3 Zrotation Xrotation Yrotation
                  JOINT rRing1
                  {
                    OFFSET -5.0395 -0.09 2.4971
                    CHANNELS 3 Zrotation Xrotation Yrotation
                    JOINT rRing2
                    {
                      OFFSET -3.7921 -1.552 1.4806
                      CHANNELS 3 Zrotation Xrotation Yrotation
                      JOINT rRing2_End
                      {
                        OFFSET -1.4655 -1.808 0.9609
                        CHANNELS 3 Zrotation Xrotation Yrotation
                        End Site
                        {
                          OFFSET -0.0147 -0.0181 0.0096
                        }
                      }
                    }
                  }
                  JOINT rPinky1
                  {
                    OFFSET -4.9141 -1.269 0.3592
                    CHANNELS 3 Zrotation Xrotation Yrotation
                    JOINT rPinky2
                    {
                      OFFSET -3.1477 -1.685 0.8462
                      CHANNELS 3 Zrotation Xrotation Yrotation
                      JOINT rPinky2_End
                      {
                        OFFSET -0.8055 -1.585 0.7955
                        CHANNELS 3 Zrotation Xrotation Yrotation
                        End Site
                        {
                          OFFSET -0.0081 -0.0158 0.008
                        }
                      }
                    }
                  }
                }
              }
            }
          }
        }
      }
    }
  }
  JOINT lThigh
  {
    OFFSET 8.367 -8.2066 0.5982
    CHANNELS 3 Zrotation Xrotation Yrotation
    JOINT lShin
    {
      OFFSET 2.1923 -43.463 -0.4932
      CHANNELS 3 Zrotation Xrotation Yrotation
      JOINT lFoot
      {
        OFFSET 0.7333 -45.8593 -2.6451
        CHANNELS 3 Zrotation Xrotation Yrotation
        End Site
        {
          OFFSET 2.6618 -4.2699 12.3931
        }
      }
    }
  }
  JOINT rThigh
  {
    OFFSET -8.367 -8.2066 0.5982
    CHANNELS 3 Zrotation Xrotation Yrotation
    JOINT rShin
    {
      OFFSET -2.1923 -43.463 -0.4931
      CHANNELS 3 Zrotation Xrotation Yrotation
      JOINT rFoot
      {
        OFFSET -0.7333 -45.8593 -2.6451
        CHANNELS 3 Zrotation Xrotation Yrotation
        End Site
        {
          OFFSET -2.6618 -4.2699 12.3931
        }
      }
    }
  }
}
MOTION
Frames:	5
Frame Time:	0.0333333
0 91.7903 2.51682 0 0 -0 0 0 -0 0 0 -0 0 0 -0 0 0 -0 0 0 -0 0 0 -0 1.66051 0.0835086 5.75766 -0.0175111 0.895433 15.7816 7.95139e-016 -1.98785e-016 -0 5.46658e-016 -3.97569e-016 -0 5.96354e-016 0 -0 3.97569e-016 1.98785e-016 9.54166e-015 1.49089e-016 -3.97569e-016 -0 6.4605e-016 0 3.18055e-015 5.96354e-016 0 3.18055e-015 8.94531e-016 -1.98785e-016 6.36111e-015 6.4605e-016 0 3.18055e-015 5.96354e-016 0 3.18055e-015 8.94531e-016 -1.98785e-016 6.36111e-015 1.49089e-016 -3.97569e-016 -0 6.4605e-016 0 3.18055e-015 5.96354e-016 0 3.18055e-015 8.94531e-016 -1.98785e-016 6.36111e-015 6.4605e-016 0 3.18055e-015 5.96354e-016 0 3.18055e-015 8.94531e-016 -1.98785e-016 6.36111e-015 0 0 -0 -1.4496 0.0636048 -5.0245 -1.74811 1.20616 -16.8394 -1.19271e-015 1.98785e-016 -3.18055e-015 -3.97569e-016 1.98785e-016 -3.18055e-015 -2.98177e-016 1.98785e-016 -3.18055e-015 -2.98177e-016 3.97569e-016 -0 4.96962e-016 0 -6.36111e-015 -9.93923e-017 3.97569e-016 -0 -8.94531e-016 5.96354e-016 -0 -3.97569e-016 3.97569e-016 -0 -9.93923e-017 3.97569e-016 -0 -8.94531e-016 5.96354e-016 -0 -3.97569e-016 3.97569e-016 -0 4.96962e-016 0 -6.36111e-015 -9.93923e-017 3.97569e-016 -0 -8.94531e-016 5.96354e-016 -0 -3.97569e-016 3.97569e-016 -0 -9.93923e-017 3.97569e-016 -0 -8.94531e-016 5.96354e-016 -0 -3.97569e-016 3.97569e-016 -0 -4.66111 -0.998717 0.12318 0.00986924 1.54847 0.176523 4.65186 -0.572283 -0.254274 4.66111 -0.998765 -0.123176 -0.00986867 1.54869 -0.176537 -4.65186 -0.572453 0.25427 
22.9394 0.359015 -4.90301 -36.9626 -84.9984 -151.849 -7.16755 0.709585 3.52524 -14.366 0.972673 7.11185 -14.3659 0.972673 7.11184 -0.722628 -1.99509 -0.0213399 -10.8813 -26.664 -2.67801 -22.8699 1.96149 -13.2005 -12.6796 2.60696 -15.6866 -24.9621 16.0315 -16.7426 -15.1049 -18.8132 -0.579729 -5.79211e-006 2.72426e-006 -5.70352e-008 8.48806e-007 1.34193e-006 6.24823e-007 4.24403e-007 6.70963e-007 3.12411e-007 -3.18055e-015 -6.36111e-015 -0 -5.79211e-006 2.72426e-006 -5.70352e-008 8.48806e-007 1.34193e-006 6.24823e-007 4.24403e-007 6.70963e-007 3.12411e-007 -5.79211e-006 2.72426e-006 -5.70352e-008 8.48806e-007 1.34193e-006 6.24823e-007 4.24403e-007 6.70963e-007 3.12411e-007 -3.18055e-015 -6.36111e-015 -0 -5.79211e-006 2.72426e-006 -5.70352e-008 8.48806e-007 1.34193e-006 6.24823e-007 4.24403e-007 6.70963e-007 3.12411e-007 -5.79211e-006 2.72426e-006 -5.70352e-008 8.48806e-007 1.34193e-006 6.24823e-007 4.24403e-007 6.70963e-007 3.12411e-007 1.2015 -0.554415 14.1024 14.4802 -2.81494 43.2989 -4.12262 -13.4271 28.4256 2.03357 -1.09654 -4.81698 -9.93129e-032 3.18055e-015 1.78906e-015 6.56178e-007 9.94167e-008 -5.31859e-007 -7.95139e-016 0 -9.93923e-017 4.41391e-032 1.59028e-015 -1.59028e-015 7.95139e-016 1.59028e-015 5.26779e-015 6.56178e-007 9.94167e-008 -5.31859e-007 7.95139e-016 0 -2.5842e-015 7.95139e-016 1.59028e-015 5.26779e-015 6.56178e-007 9.94167e-008 -5.31859e-007 7.95139e-016 0 -2.5842e-015 4.41391e-032 1.59028e-015 -1.59028e-015 7.95139e-016 1.59028e-015 5.26779e-015 6.56178e-007 9.94167e-008 -5.31859e-007 7.95139e-016 0 -2.5842e-015 7.95139e-016 1.59028e-015 5.26779e-015 6.56178e-007 9.94167e-008 -5.31859e-007 7.95139e-016 0 -2.5842e-015 27.3149 -1.66307 42.2463 -65.144 34.3765 61.8921 7.77042 18.4749 2.68283 -5.40385 5.00123 -1.19905 -15.8174 53.7376 9.04924 -8.97433 18.5406 0.531214 
22.9394 0.359015 -4.90301 -36.9626 -84.9984 -151.849 -7.16755 0.709585 3.52524 -14.366 0.972673 7.11185 -14.3659 0.972673 7.11184 -0.816703 -1.38018 0.422204 -10.8813 -26.664 -2.67801 -22.8699 1.96149 -13.2005 -12.8038 2.14142 -15.3677 -24.9621 16.0315 -16.7426 -15.6874 -18.6764 -0.986683 -3.53054e-006 3.52095e-007 -4.79017e-007 1.92428e-006 -2.81704e-006 7.96195e-007 -9.64519e-007 -8.24586e-007 -2.75345e-006 3.18055e-015 -7.95139e-015 -0 -3.53054e-006 3.52095e-007 -4.79017e-007 1.92428e-006 -2.81704e-006 7.96195e-007 -9.64519e-007 -8.24586e-007 -2.75345e-006 -3.53054e-006 3.52095e-007 -4.79017e-007 1.92428e-006 -2.81704e-006 7.96195e-007 -9.64519e-007 -8.24586e-007 -2.75345e-006 3.18055e-015 -7.95139e-015 -0 -3.53054e-006 3.52095e-007 -4.79017e-007 1.92428e-006 -2.81704e-006 7.96195e-007 -9.64519e-007 -8.24586e-007 -2.75345e-006 -3.53054e-006 3.52095e-007 -4.79017e-007 1.92428e-006 -2.81704e-006 7.96195e-007 -9.64519e-007 -8.24586e-007 -2.75345e-006 1.2015 -0.554415 14.1024 14.4802 -2.81494 43.2989 -4.12262 -13.4271 28.4256 2.03357 -1.09654 -4.81698 -9.93129e-032 3.18055e-015 1.78906e-015 6.56178e-007 9.94167e-008 -5.31859e-007 -7.95139e-016 0 -9.93923e-017 4.41391e-032 1.59028e-015 -1.59028e-015 7.95139e-016 1.59028e-015 5.26779e-015 6.56178e-007 9.94167e-008 -5.31859e-007 7.95139e-016 0 -2.5842e-015 7.95139e-016 1.59028e-015 5.26779e-015 6.56178e-007 9.94167e-008 -5.31859e-007 7.95139e-016 0 -2.5842e-015 4.41391e-032 1.59028e-015 -1.59028e-015 7.95139e-016 1.59028e-015 5.26779e-015 6.56178e-007 9.94167e-008 -5.31859e-007 7.95139e-016 0 -2.5842e-015 7.95139e-016 1.59028e-015 5.26779e-015 6.56178e-007 9.94167e-008 -5.31859e-007 7.95139e-016 0 -2.5842e-015 27.3149 -1.66307 42.2463 -65.144 34.3765 61.8921 7.77042 18.4749 2.68283 -5.40385 5.00123 -1.19905 -15.8174 53.7376 9.04924 -8.97433 18.5406 0.531214 
22.9394 0.359015 -4.90301 -36.9626 -84.9984 -151.849 -7.16755 0.709585 3.52524 -14.366 0.972673 7.11185 -14.3659 0.972673 7.11184 -0.91577 -0.764039 0.868068 -10.8813 -26.664 -2.67801 -22.8699 1.96149 -13.2005 -12.9255 1.67465 -15.0496 -24.9621 16.0315 -16.7426 -16.2691 -18.5354 -1.39233 -6.36111e-015 3.18055e-015 -0 -1.27382e-006 -4.76005e-007 -2.00083e-006 2.94165e-006 -5.30975e-007 -2.00732e-006 8.82781e-032 1.59028e-015 -3.18055e-015 -9.54166e-015 1.59028e-014 1.27222e-014 -1.27382e-006 -4.76005e-007 -2.00083e-006 2.94165e-006 -5.30975e-007 -2.00732e-006 -9.54166e-015 1.59028e-014 1.27222e-014 -1.27382e-006 -4.76005e-007 -2.00083e-006 2.94165e-006 -5.30975e-007 -2.00732e-006 8.82781e-032 1.59028e-015 -3.18055e-015 -9.54166e-015 1.59028e-014 1.27222e-014 -1.27382e-006 -4.76005e-007 -2.00083e-006 2.94165e-006 -5.30975e-007 -2.00732e-006 -9.54166e-015 1.59028e-014 1.27222e-014 -1.27382e-006 -4.76005e-007 -2.00083e-006 2.94165e-006 -5.30975e-007 -2.00732e-006 1.2015 -0.554415 14.1024 14.4802 -2.81494 43.2989 -4.12262 -13.4271 28.4256 2.03357 -1.09654 -4.81698 -9.93129e-032 3.18055e-015 1.78906e-015 6.56178e-007 9.94167e-008 -5.31859e-007 -7.95139e-016 0 -9.93923e-017 4.41391e-032 1.59028e-015 -1.59028e-015 7.95139e-016 1.59028e-015 5.26779e-015 6.56178e-007 9.94167e-008 -5.31859e-007 7.95139e-016 0 -2.5842e-015 7.95139e-016 1.59028e-015 5.26779e-015 6.56178e-007 9.94167e-008 -5.31859e-007 7.95139e-016 0 -2.5842e-015 4.41391e-032 1.59028e-015 -1.59028e-015 7.95139e-016 1.59028e-015 5.26779e-015 6.56178e-007 9.94167e-008 -5.31859e-007 7.95139e-016 0 -2.5842e-015 7.95139e-016 1.59028e-015 5.26779e-015 6.56178e-007 9.94167e-008 -5.31859e-007 7.95139e-016 0 -2.5842e-015 27.3149 -1.66307 42.2463 -65.144 34.3765 61.8921 7.77042 18.4749 2.68283 -5.40385 5.00123 -1.19905 -15.8174 53.7376 9.04924 -8.97433 18.5406 0.531214 
22.9394 0.359015 -4.90301 -36.9626 -84.9984 -151.849 -7.16755 0.709585 3.52524 -14.366 0.972673 7.11185 -14.3659 0.972673 7.11184 -1.01999 -0.147009 1.31615 -10.8813 -26.664 -2.67801 -22.8699 1.96149 -13.2005 -13.0447 1.20669 -14.7322 -24.9621 16.0315 -16.7426 -16.8499 -18.3904 -1.79663 6.36111e-015 7.95139e-015 -6.36111e-015 -1.0301e-006 -8.18662e-008 -3.31292e-006 2.07445e-006 -1.09695e-006 -3.18518e-006 6.36111e-015 4.77083e-015 -6.36111e-015 -9.54166e-015 6.36111e-015 1.27222e-014 -1.0301e-006 -8.18662e-008 -3.31292e-006 2.07445e-006 -1.09695e-006 -3.18518e-006 -9.54166e-015 6.36111e-015 1.27222e-014 -1.0301e-006 -8.18662e-008 -3.31292e-006 2.07445e-006 -1.09695e-006 -3.18518e-006 6.36111e-015 4.77083e-015 -6.36111e-015 -9.54166e-015 6.36111e-015 1.27222e-014 -1.0301e-006 -8.18662e-008 -3.31292e-006 2.07445e-006 -1.09695e-006 -3.18518e-006 -9.54166e-015 6.36111e-015 1.27222e-014 -1.0301e-006 -8.18662e-008 -3.31292e-006 2.07445e-006 -1.09695e-006 -3.18518e-006 1.2015 -0.554415 14.1024 14.4802 -2.81494 43.2989 -4.12262 -13.4271 28.4256 2.03357 -1.09654 -4.81698 -9.93129e-032 3.18055e-015 1.78906e-015 6.56178e-007 9.94167e-008 -5.31859e-007 -7.95139e-016 0 -9.93923e-017 4.41391e-032 1.59028e-015 -1.59028e-015 7.95139e-016 1.59028e-015 5.26779e-015 6.56178e-007 9.94167e-008 -5.31859e-007 7.95139e-016 0 -2.5842e-015 7.95139e-016 1.59028e-015 5.26779e-015 6.56178e-007 9.94167e-008 -5.31859e-007 7.95139e-016 0 -2.5842e-015 4.41391e-032 1.59028e-015 -1.59028e-015 7.95139e-016 1.59028e-015 5.26779e-015 6.56178e-007 9.94167e-008 -5.31859e-007 7.95139e-016 0 -2.5842e-015 7.95139e-016 1.59028e-015 5.26779e-015 6.56178e-007 9.94167e-008 -5.31859e-007 7.95139e-016 0 -2.5842e-015 27.3149 -1.66307 42.2463 -65.144 34.3765 61.8921 7.77042 18.4749 2.68283 -5.40385 5.00123 -1.19905 -15.8174 53.7376 9.04924 -8.97433 18.5406 0.531214 
